<svg width="878" height="660" viewBox="0 0 878 660" fill="none" xmlns="http://www.w3.org/2000/svg">
<g clip-path="url(#clip0_31413_618)">
<path opacity="0.5" fill-rule="evenodd" clip-rule="evenodd" d="M867.393 660H0.586485C-10.3884 512.198 135.329 419.062 214.498 368.462C224.782 361.888 233.943 356.033 241.492 350.869C274.581 328.232 299.117 278.801 325.212 226.228C373.287 129.372 426.654 21.8545 548.544 51.5906C655.706 77.8024 816.764 189.332 877.317 356.181V633.297C874.313 642.129 871.008 651.03 867.393 660Z" fill="url(#paint0_linear_31413_618)"/>
<path d="M476.317 465C350.396 465 248.317 475.297 248.317 488C248.317 500.703 350.396 511 476.317 511C602.238 511 704.317 500.703 704.317 488C704.317 475.297 602.238 465 476.317 465Z" fill="#F0F0F5"/>
<path d="M682.697 398.817C682.697 398.817 650.349 491.056 646.883 491.056C643.417 491.056 574.099 512.963 635.33 485.291C635.33 485.291 642.262 384.981 652.66 380.369C663.057 375.758 682.697 398.817 682.697 398.817Z" fill="#965450"/>
<path d="M658.436 465.229C668.949 437.903 682.697 398.817 682.697 398.817C682.697 398.817 663.057 375.758 652.66 380.369C645.959 383.367 640.645 426.489 637.756 456.466C644.688 459.234 651.504 462.231 658.436 465.229Z" fill="#76413B"/>
<path d="M625.279 490.249C625.279 490.249 622.622 496.36 648.039 489.903L646.883 493.362C646.883 493.362 575.255 510.196 625.279 490.249Z" fill="#051F38"/>
<path d="M663.057 359.731C663.057 359.731 713.081 443.784 710.886 446.436C708.691 449.087 680.964 516.191 698.987 451.509C698.987 451.509 626.434 381.753 629.553 370.8C632.788 359.962 663.057 359.731 663.057 359.731Z" fill="#965450"/>
<path d="M696.445 462.347C696.445 462.347 699.449 468.342 710.771 444.706L712.735 447.819C712.62 447.819 679.578 513.54 696.445 462.347Z" fill="#051F38"/>
<path d="M692.171 409.771C678.77 386.135 663.057 359.731 663.057 359.731C663.057 359.731 632.789 359.962 629.554 370.8C627.474 377.833 657.281 409.655 678.423 431.101C678.538 431.216 686.741 422.108 692.171 409.771Z" fill="#76413B"/>
<path d="M694.827 233.364C694.827 233.364 664.211 199.351 646.304 220.681C628.397 242.011 600.67 312.343 604.714 341.168C607.14 358.117 623.429 376.219 636.484 388.325L625.509 450.125C625.509 450.125 670.566 462.231 667.677 462.231C665.944 462.231 712.156 338.286 716.777 299.084C721.399 259.883 694.827 233.364 694.827 233.364Z" fill="#8257E6"/>
<path opacity="0.2" d="M671.376 240.974C679.925 240.858 689.283 239.705 697.485 236.362C695.868 234.402 694.828 233.364 694.828 233.364C694.828 233.364 664.213 199.351 646.306 220.681C643.533 224.025 640.529 228.406 637.525 233.71C647.576 239.244 660.285 241.204 671.376 240.974Z" fill="#352C38"/>
<path opacity="0.2" d="M625.51 257.461C612.802 286.401 602.058 322.374 604.715 341.053C607.026 357.886 623.2 375.873 636.255 387.979C640.876 356.618 649.309 313.035 654.393 287.9C641.8 280.752 631.402 270.49 625.51 257.461Z" fill="#352C38"/>
<path d="M606.448 165.337L587.963 201.08C587.963 201.08 555.615 183.208 550.994 183.208C546.373 183.208 524.422 183.785 534.82 188.397C534.82 188.397 530.198 191.279 535.397 192.432C535.397 192.432 530.776 196.468 536.553 197.044L549.838 196.468C549.838 196.468 576.41 220.68 589.696 224.139C602.982 227.598 624.355 182.632 624.355 182.632L606.448 165.337Z" fill="#965450"/>
<path d="M609.452 190.934C612.34 191.972 615.344 193.01 618.348 194.047C622.045 187.591 624.355 182.517 624.355 182.517L606.448 165.223L596.281 184.823C600.325 187.36 604.831 189.32 609.452 190.934Z" fill="#76413B"/>
<path d="M629.553 148.043C629.553 148.043 612.224 145.161 605.87 154.385C599.516 163.608 596.627 178.597 596.627 178.597L621.466 190.704L629.553 148.043Z" fill="#34CB79"/>
<path opacity="0.1" d="M619.966 180.673C613.611 175.715 606.333 169.489 601.596 161.994C598.13 170.065 596.513 178.482 596.513 178.482L621.352 190.588L622.854 182.748C621.93 182.171 620.89 181.48 619.966 180.673Z" fill="#161826"/>
<path d="M508.017 178.943C508.71 180.788 507.67 182.863 505.821 183.555L492.189 188.513C490.341 189.205 488.261 188.167 487.568 186.322L482.138 171.218C481.445 169.373 482.485 167.298 484.333 166.606L497.965 161.648C499.814 160.957 501.893 161.994 502.587 163.839L508.017 178.943Z" fill="#23173B"/>
<path d="M518.992 167.644L476.246 182.979C468.736 185.63 464.924 193.932 467.581 201.426L480.751 237.976C483.409 245.47 491.727 249.275 499.236 246.623L541.982 231.289C549.492 228.637 553.304 220.335 550.647 212.841L537.477 176.291C534.704 168.797 526.501 164.877 518.992 167.644ZM546.488 216.185C547.528 219.182 546.026 222.526 543.022 223.564L524.653 172.832C527.657 171.795 531.007 173.294 532.047 176.291L546.488 216.185Z" fill="#322153"/>
<path d="M505.244 163.608C505.821 165.223 505.013 167.067 503.395 167.644L483.986 174.677C482.369 175.254 480.52 174.447 479.943 172.832L478.325 168.336C477.748 166.722 478.556 164.877 480.174 164.3L499.583 157.267C501.2 156.691 503.049 157.498 503.626 159.112L505.244 163.608Z" fill="#8257E6"/>
<path d="M532.509 185.515C532.509 185.515 539.787 182.978 541.058 184.477C542.214 185.861 534.935 187.936 535.282 188.052C535.513 188.167 543.138 186.437 543.831 188.052C544.524 189.666 535.744 192.548 535.744 192.548C535.744 192.548 544.062 190.242 544.64 191.972C545.217 193.701 535.975 196.238 535.975 196.238L535.513 192.433L534.935 188.052L532.509 185.515Z" fill="#965450"/>
<path d="M542.791 183.555C542.791 183.555 537.13 179.75 537.13 178.482C537.015 177.098 552.149 183.44 552.149 183.44L542.791 183.555Z" fill="#965450"/>
<path d="M654.393 145.161C653.237 147.236 658.898 98.926 658.898 98.926L632.673 116.567C632.673 116.567 634.984 147.467 632.096 147.582C630.94 147.582 626.435 149.311 621.467 151.156C622.622 156.921 624.933 158.189 626.897 163.724C641.569 163.608 657.512 163.263 666.523 149.888C661.325 148.158 655.895 142.278 654.393 145.161Z" fill="#76413B"/>
<path d="M629.554 148.043L628.399 144.008L657.281 137.666L658.436 144.584C658.436 144.584 693.095 156.114 697.717 182.056C702.338 207.998 700.027 224.717 694.828 233.364C694.828 233.364 654.393 239.129 637.063 230.482C619.734 221.834 601.827 157.267 611.069 151.502C620.312 145.737 629.554 148.043 629.554 148.043Z" fill="#34CB79"/>
<path opacity="0.1" d="M667.333 219.874C653.469 219.067 636.486 217.453 624.933 208.921C622.738 207.306 620.774 205.577 618.926 203.617C624.124 216.415 630.594 227.253 637.064 230.481C654.393 239.129 694.829 233.364 694.829 233.364C697.139 229.559 698.872 224.14 699.681 216.992C689.283 220.105 678.423 220.566 667.333 219.874Z" fill="#161826"/>
<path d="M665.946 199.927L695.406 197.621C695.406 197.621 687.896 249.505 679.232 267.377C670.567 285.248 630.709 355.58 646.306 316.378C646.306 316.378 626.088 346.933 643.417 315.802C643.417 315.802 624.355 340.591 641.107 314.073C641.107 314.073 621.467 336.556 642.262 304.849C642.262 304.849 626.666 312.343 643.995 299.66L660.747 255.847L665.946 199.927Z" fill="#965450"/>
<path d="M694.713 201.772C695.175 199.12 695.406 197.506 695.406 197.506L665.946 199.812L665.715 202.81C675.304 202.81 685.008 202.349 694.713 201.772Z" fill="#76413B"/>
<path d="M635.1 67.9108C635.1 67.9108 649.772 59.3787 671.26 73.4451C685.47 82.7843 684.777 112.647 654.046 132.247C617.539 155.538 635.1 67.9108 635.1 67.9108Z" fill="#051F38"/>
<path d="M655.433 83.8219C655.433 83.8219 638.912 71.0238 624.818 77.2499C607.026 85.3208 608.874 104.114 608.528 120.141C608.066 141.471 624.933 145.507 630.016 145.737C637.526 146.198 668.141 144.354 655.433 83.8219Z" fill="#965450"/>
<path d="M657.05 103.769C657.05 103.769 657.744 100.54 663.289 103.077C670.336 106.42 666.524 123.254 658.668 122.793C650.696 122.447 657.05 103.769 657.05 103.769Z" fill="#965450"/>
<path d="M657.05 103.769C657.05 103.769 657.974 115.298 655.317 115.414C652.544 115.529 649.656 94.5447 657.281 94.5447C664.906 94.7753 657.05 103.769 657.05 103.769Z" fill="#051F38"/>
<path d="M657.05 103.769C657.05 103.769 651.389 78.1724 617.77 82.4385C617.77 82.4385 622.622 72.8687 633.251 68.3721C647.692 62.2612 669.296 86.8198 663.289 103.077C663.289 103.077 660.516 103.423 657.05 103.769Z" fill="#34CB79"/>
<path d="M671.26 80.1324C671.26 80.1324 669.412 49.5783 676.805 49.5783C684.199 49.5783 676.228 75.2899 676.228 75.2899C676.228 75.2899 682.351 38.5097 700.143 44.044C717.934 49.5783 687.203 75.2899 687.203 75.2899C687.203 75.2899 701.298 62.3765 706.266 66.7578C711.118 71.0238 686.048 79.6712 686.048 79.6712C686.048 79.6712 705.11 74.1369 707.536 83.3608C709.963 92.4694 670.682 91.2011 671.26 80.1324Z" fill="#051F38"/>
<path d="M609.452 97.8889C609.452 97.8889 609.452 97.6583 609.683 97.1971C609.914 96.7359 610.145 96.1594 610.723 95.5829C611.3 95.0064 611.994 94.3146 612.918 93.8534C613.149 93.7381 613.38 93.6228 613.727 93.5075C613.958 93.3922 614.304 93.2769 614.535 93.2769C614.882 93.2769 615.113 93.1616 615.459 93.1616H616.384C616.961 93.1616 617.539 93.3922 618.117 93.6228C618.694 93.8534 619.156 94.084 619.619 94.4299C620.081 94.7758 620.427 95.1217 620.774 95.4676C621.12 95.8135 621.351 96.1594 621.467 96.5053C621.583 96.6206 621.698 96.8512 621.698 96.9665C621.814 97.0818 621.814 97.3124 621.929 97.4277C622.045 97.7736 622.16 98.0042 622.16 98.2348C622.276 98.6959 622.276 98.9265 622.276 98.9265C622.276 98.9265 622.045 98.8112 621.583 98.696C621.351 98.5807 621.12 98.4653 620.889 98.3501C620.658 98.2348 620.312 98.1195 619.965 97.8889C619.619 97.7736 619.387 97.543 619.041 97.4277C618.694 97.3124 618.348 97.1971 618.001 97.0818C617.655 96.9665 617.308 96.8512 616.961 96.7359C616.615 96.7359 616.268 96.6206 615.922 96.6206H615.459C615.344 96.6206 615.113 96.6206 614.882 96.6206C614.535 96.6206 614.189 96.7359 613.842 96.7359C613.495 96.8512 613.149 96.8512 612.802 96.9665C612.456 97.0818 612.109 97.0818 611.762 97.1971C611.069 97.4277 610.492 97.543 610.145 97.6583C609.799 97.8889 609.452 97.8889 609.452 97.8889Z" fill="#051F38"/>
<path d="M618.348 129.595C618.348 129.595 637.295 130.172 638.565 129.941C639.721 129.711 627.937 138.935 618.348 129.595Z" fill="white"/>
<path d="M619.618 108.496C619.618 108.496 619.618 108.726 619.503 109.188C619.387 109.649 619.272 110.225 619.041 111.032C618.925 111.378 618.81 111.839 618.579 112.185C618.463 112.416 618.348 112.647 618.232 112.762C618.116 112.992 617.885 113.223 617.77 113.338C617.423 113.684 617.077 114.145 616.499 114.376C616.384 114.491 616.268 114.491 616.037 114.607L615.69 114.722C615.459 114.837 615.113 114.837 614.766 114.837C614.188 114.837 613.495 114.722 613.033 114.261C612.571 113.915 612.224 113.454 611.993 112.877C611.762 112.416 611.647 111.955 611.531 111.494C611.416 111.032 611.416 110.571 611.416 110.225C611.416 109.418 611.416 108.842 611.531 108.381C611.647 107.919 611.762 107.689 611.762 107.689C611.762 107.689 611.762 108.726 612.109 110.225C612.224 110.917 612.456 111.839 612.918 112.531C613.149 112.877 613.38 113.223 613.726 113.454C614.073 113.684 614.42 113.8 614.766 113.8C614.997 113.8 615.113 113.8 615.344 113.684L615.69 113.569C615.69 113.569 615.806 113.454 615.921 113.454C616.268 113.338 616.615 112.992 616.961 112.762C617.308 112.416 617.539 112.07 617.77 111.724C618.001 111.378 618.232 111.032 618.348 110.686C618.694 109.995 618.925 109.418 619.156 109.072C619.503 108.726 619.618 108.496 619.618 108.496Z" fill="#1F2733"/>
<path d="M638.681 109.995C638.681 109.995 638.681 110.225 638.565 110.686C638.45 111.148 638.334 111.724 638.103 112.531C637.988 112.877 637.872 113.338 637.641 113.684C637.526 113.915 637.41 114.145 637.295 114.261C637.179 114.491 636.948 114.722 636.832 114.837C636.486 115.183 636.139 115.644 635.562 115.875C635.446 115.99 635.331 115.99 635.099 116.106L634.753 116.221C634.522 116.336 634.175 116.336 633.829 116.336C633.251 116.336 632.558 116.221 632.096 115.76C631.634 115.414 631.287 114.953 631.056 114.376C630.825 113.915 630.709 113.454 630.594 112.992C630.478 112.531 630.478 112.07 630.478 111.724C630.478 110.917 630.478 110.341 630.594 109.879C630.709 109.418 630.825 109.188 630.825 109.188C630.825 109.188 630.825 110.225 631.171 111.724C631.287 112.416 631.518 113.338 631.98 114.03C632.211 114.376 632.442 114.722 632.789 114.953C633.135 115.183 633.482 115.298 633.829 115.298C634.06 115.298 634.175 115.298 634.406 115.183L634.753 115.068C634.753 115.068 634.868 114.953 634.984 114.953C635.331 114.837 635.677 114.491 636.024 114.261C636.37 113.915 636.601 113.569 636.832 113.223C637.063 112.877 637.295 112.531 637.41 112.185C637.757 111.494 637.988 110.917 638.219 110.571C638.565 110.225 638.681 109.995 638.681 109.995Z" fill="#1F2733"/>
<path d="M659.707 119.564C660.054 119.103 660.285 118.757 660.516 118.296C660.747 117.835 660.863 117.374 660.978 116.913C660.978 116.682 660.978 116.451 660.978 116.221C660.978 116.106 660.863 115.99 660.863 115.99C660.863 115.875 660.747 115.76 660.631 115.76C660.516 115.644 660.516 115.644 660.4 115.529L660.169 115.298C660.054 115.183 659.938 115.183 659.823 115.183L659.476 115.068L659.245 114.953V114.722C658.899 113.454 658.783 112.301 658.667 111.032C658.552 110.456 658.552 109.764 658.667 109.188C658.667 108.496 658.783 107.919 659.014 107.228C659.13 106.882 659.361 106.536 659.707 106.305C660.054 106.075 660.516 105.844 660.863 105.959C661.325 105.959 661.556 106.075 661.902 106.19C662.249 106.305 662.595 106.42 662.827 106.651C663.058 106.882 663.404 107.112 663.52 107.343C663.751 107.573 663.866 107.919 663.982 108.15C664.213 108.726 664.328 109.418 664.213 109.995C664.097 109.418 663.982 108.842 663.635 108.265C663.52 108.035 663.289 107.804 663.058 107.573C662.827 107.343 662.595 107.228 662.364 107.112C662.133 106.997 661.902 106.882 661.556 106.882C661.325 106.882 660.978 106.766 660.747 106.766C660.285 106.766 660.054 107.112 659.938 107.573C659.592 108.611 659.707 109.764 659.707 110.917C659.823 112.07 659.938 113.338 660.169 114.491L659.938 114.145L660.285 114.376C660.4 114.491 660.516 114.491 660.631 114.607L660.978 114.837C661.094 114.953 661.209 115.068 661.325 115.183C661.44 115.298 661.556 115.414 661.556 115.644C661.671 115.76 661.671 115.99 661.671 116.106C661.787 116.451 661.671 116.682 661.671 117.028C661.556 117.604 661.209 118.066 660.863 118.527C660.516 118.873 660.054 119.334 659.707 119.564Z" fill="#76413B"/>
<path d="M621.352 124.407C620.774 124.522 620.312 124.522 619.85 124.522C619.388 124.522 618.926 124.407 618.579 124.292C618.117 124.176 617.77 123.946 617.424 123.83C617.193 123.715 617.077 123.6 616.846 123.485C616.615 123.369 616.499 123.254 616.268 123.139L615.575 122.562L615.691 122.101C616.846 118.757 618.001 115.529 619.157 112.301C620.312 109.072 621.583 105.729 622.854 102.5C622.045 105.844 621.121 109.303 620.312 112.647C619.388 115.99 618.463 119.334 617.539 122.677L617.077 121.64C617.308 121.64 617.539 121.755 617.77 121.755C618.001 121.755 618.232 121.87 618.348 121.986C618.695 122.101 619.157 122.332 619.503 122.562C619.85 122.793 620.196 123.139 620.543 123.485C620.774 123.6 621.121 123.946 621.352 124.407Z" fill="#76413B"/>
<path d="M628.168 96.5047C628.168 96.5047 628.283 96.1589 628.63 95.813C628.861 95.5824 628.976 95.3518 629.323 95.0059C629.67 94.7753 629.901 94.4294 630.363 94.1988C630.709 93.9682 631.171 93.6223 631.749 93.3917C632.211 93.1611 632.789 92.9305 633.367 92.6999C633.944 92.5846 634.637 92.354 635.331 92.354C635.677 92.354 636.024 92.354 636.37 92.354L637.41 92.4693C638.103 92.4693 638.796 92.8152 639.374 92.9305C639.952 93.1611 640.529 93.507 641.107 93.7376C641.685 94.0835 642.147 94.4294 642.493 94.7753C642.956 95.1212 643.302 95.5824 643.533 95.9283C643.88 96.2741 644.111 96.62 644.342 96.9659C644.573 97.3118 644.688 97.6577 644.804 97.8883C645.035 98.3495 645.151 98.6954 645.151 98.6954C645.151 98.6954 644.804 98.5801 644.342 98.3495C644.111 98.2342 643.764 98.1189 643.418 97.8883C643.071 97.6577 642.724 97.5424 642.262 97.4271C641.916 97.3118 641.454 97.0812 640.992 96.8506C640.529 96.7353 640.067 96.5047 639.605 96.3894C639.143 96.2742 638.681 96.1588 638.219 96.0436C637.757 96.0436 637.295 95.813 636.717 95.813L636.024 95.6977H635.331C634.868 95.6977 634.291 95.6977 633.829 95.6977C633.367 95.6977 632.904 95.6977 632.442 95.813C631.98 95.813 631.518 95.9283 631.056 95.9283C630.247 96.0436 629.439 96.1588 628.976 96.2741C628.514 96.5047 628.168 96.5047 628.168 96.5047Z" fill="#051F38"/>
<path d="M612.224 490.825C612.224 494.976 608.874 498.435 604.715 498.55C600.556 498.55 597.09 495.207 596.975 491.056L596.628 466.613C596.628 462.462 599.978 459.003 604.137 458.888C608.296 458.888 611.762 462.231 611.878 466.382L612.224 490.825Z" fill="#091E1D"/>
<path d="M505.822 492.095C505.822 496.245 502.471 499.704 498.312 499.82C494.153 499.82 490.687 496.476 490.572 492.325L490.225 467.882C490.225 463.731 493.575 460.272 497.735 460.157C501.894 460.157 505.36 463.501 505.475 467.651L505.822 492.095Z" fill="#091E1D"/>
<path d="M603.675 473.415C603.791 482.87 596.166 490.595 586.693 490.71L515.526 491.517C506.053 491.633 498.312 484.023 498.197 474.568L490.572 312.92C490.456 303.465 498.081 295.74 507.555 295.625L590.158 294.587C599.632 294.472 607.372 302.082 607.488 311.536L603.675 473.415Z" fill="#34CB79"/>
<path opacity="0.1" d="M607.026 327.793L607.372 311.767C607.257 302.312 599.516 294.703 590.043 294.818L507.439 295.856C497.966 295.971 490.341 303.696 490.456 313.151L491.265 329.177L607.026 327.793Z" fill="#161826"/>
<path d="M621.12 307.732C621.12 310.383 619.041 312.459 616.384 312.574L481.445 314.188C478.788 314.188 476.708 312.113 476.593 309.461L476.362 292.397C476.362 289.745 478.441 287.67 481.098 287.554L616.037 285.94C618.694 285.94 620.774 288.016 620.889 290.667L621.12 307.732Z" fill="#34CB79"/>
<path d="M549.492 355.119L565.204 345.665L561.391 355.465L549.492 355.119Z" fill="white"/>
<path d="M543.6 340.246C543.6 340.246 544.871 340.246 546.835 343.243C548.799 346.241 553.189 354.312 553.189 354.312L561.16 350.738L563.009 347.625C563.009 347.625 559.543 340.707 556.77 340.246H543.6Z" fill="white"/>
<path d="M539.21 342.321C539.21 342.321 541.636 339.669 543.6 341.053C545.564 342.437 549.03 348.201 549.03 348.201L543.369 358.117L533.202 352.468L539.21 342.321Z" fill="white"/>
<path d="M556.655 367.456L557.464 385.673L550.647 377.718L556.655 367.456Z" fill="white"/>
<path d="M572.598 369.301C572.598 369.301 572.02 370.454 568.439 370.8C564.857 371.146 555.615 371.146 555.615 371.146L554.922 379.908L556.77 383.021C556.77 383.021 564.511 383.367 566.244 381.061L572.598 369.301Z" fill="white"/>
<path d="M572.714 364.458C572.714 364.458 573.984 367.802 571.789 368.955C569.71 369.993 562.894 370.223 562.894 370.223L556.771 360.538L566.591 354.197L572.714 364.458Z" fill="white"/>
<path d="M542.789 367.225L526.615 358.693L537.013 356.849L542.789 367.225Z" fill="white"/>
<path d="M533.202 380.024C533.202 380.024 532.509 378.986 534.011 375.758C535.513 372.529 540.134 364.574 540.134 364.574L532.971 359.616L529.39 359.731C529.39 359.731 525.231 366.303 526.27 368.84L533.202 380.024Z" fill="white"/>
<path d="M537.246 382.56C537.246 382.56 533.664 381.868 533.895 379.562C534.011 377.141 537.246 371.261 537.246 371.261L548.683 370.915L549.145 382.56H537.246Z" fill="white"/>
<path d="M301.565 445.167C301.565 445.167 299.023 485.868 296.828 486.675C288.394 489.557 224.738 505.699 284.929 478.604L283.311 448.972L301.565 445.167Z" fill="#051F38"/>
<path d="M298.908 476.759C300.409 464.422 301.565 445.167 301.565 445.167L283.311 448.972L284.813 475.376C289.319 476.644 294.517 476.759 298.908 476.759Z" fill="#041523"/>
<path d="M259.396 492.786C257.548 497.282 290.821 488.75 296.828 486.675C296.944 486.56 297.175 486.329 297.406 485.753C289.896 487.828 267.137 493.016 259.396 492.786Z" fill="white"/>
<path d="M340.498 442.977C340.498 442.977 343.849 483.677 346.159 484.369C354.708 487.136 418.596 502.01 357.828 476.067L358.868 446.436L340.498 442.977Z" fill="#051F38"/>
<path d="M343.849 474.453C342.116 462.232 340.498 442.977 340.498 442.977L358.868 446.436L357.943 472.839C353.438 474.223 348.239 474.338 343.849 474.453Z" fill="#041523"/>
<path d="M383.706 489.788C385.67 494.285 352.167 486.329 346.159 484.369C345.928 484.369 345.813 484.023 345.582 483.447C353.091 485.522 375.966 490.249 383.706 489.788Z" fill="white"/>
<path d="M351.705 223.218C351.705 223.218 368.341 357.31 364.991 465.806C364.991 465.806 345.12 471.34 339.921 467.305C335.415 441.593 335.993 391.554 329.292 354.428C322.938 319.377 320.396 290.667 320.396 290.667L318.317 288.361C318.317 288.361 304.684 457.85 301.68 470.764C284.466 474.799 279.037 470.072 279.037 470.072C279.037 470.072 271.18 258.038 276.033 223.794C282.271 179.059 351.705 223.218 351.705 223.218Z" fill="#34CB79"/>
<path opacity="0.1" d="M354.707 251.004C352.974 233.71 351.588 223.333 351.588 223.333C351.588 223.333 282.27 179.173 275.916 223.909C275.338 228.06 274.992 234.863 274.645 243.51C279.844 246.392 344.772 255.616 354.707 251.004Z" fill="#161826"/>
<path opacity="0.1" d="M319.125 286.978C319.934 296.087 324.093 325.488 329.292 354.428C335.993 391.669 335.415 441.593 339.921 467.305C345.12 471.34 364.991 465.806 364.991 465.806C366.955 399.048 361.525 322.605 356.904 273.719C345.928 280.637 331.949 283.98 319.125 286.978Z" fill="#161826"/>
<path d="M325.017 105.959C325.133 91.8928 326.173 73.3298 326.173 73.3298L298.446 65.7201C298.446 65.7201 299.37 90.8552 300.178 106.19C287.586 110.456 273.26 118.527 273.26 118.527L325.595 131.786L344.195 113.8C344.195 113.8 334.837 109.072 325.017 105.959Z" fill="#FFB39F"/>
<path d="M325.017 105.959C325.133 91.8928 326.173 73.3298 326.173 73.3298L298.446 65.7201C298.446 65.7201 299.37 90.8552 300.178 106.19C287.586 110.456 273.26 118.527 273.26 118.527L325.595 131.786L350.318 110.571C350.318 110.571 334.953 104.806 325.017 105.959Z" fill="#E09B8D"/>
<path d="M296.019 39.0861C296.019 39.0861 303.298 15.5652 322.476 19.2548C341.654 22.9444 344.426 47.9641 346.853 64.7977C349.279 81.7466 343.849 96.966 328.83 98.8107C315.775 100.425 293.016 97.8883 296.019 39.0861Z" fill="#FFB39F"/>
<path d="M296.944 58.8021C296.944 58.8021 295.789 55.6891 291.052 59.148C285.044 63.5294 291.167 79.6712 298.446 77.9417C305.724 76.2122 296.944 58.8021 296.944 58.8021Z" fill="#FFB39F"/>
<path d="M290.243 25.5963C290.705 25.481 299.716 24.7892 293.709 25.3657C299.254 31.3612 298.677 32.8601 306.302 34.2437C310.345 46.6959 302.374 54.1903 302.374 54.1903L304.569 69.1791L298.792 69.7556C298.792 69.7556 298.908 59.3788 294.518 58.4564C290.127 57.534 288.857 62.8377 288.857 62.8377C279.73 51.3079 270.487 28.7094 290.243 25.5963Z" fill="#051F38"/>
<path d="M342.578 17.1795C346.275 8.07089 340.036 0 340.036 0C341.076 3.34366 340.614 6.45671 339.574 8.99328C338.881 6.45671 337.61 3.68955 335.3 0.922387C335.3 0.922387 335.993 10.1463 323.4 8.99328C310.807 7.84029 288.741 9.56977 287.817 29.0552C286.777 48.5407 305.609 34.3589 305.609 34.3589C305.609 34.3589 343.156 44.8511 348.586 14.6429L342.578 17.1795Z" fill="#051F38"/>
<path d="M324.786 50.8476C324.786 50.8476 324.44 50.8476 323.977 50.7323C323.4 50.617 322.707 50.5017 321.898 50.3864C321.436 50.2711 321.089 50.2711 320.627 50.2711C320.165 50.1558 319.703 50.1558 319.241 50.1558C318.779 50.1558 318.317 50.1558 317.739 50.1558C317.508 50.1558 317.277 50.1558 317.046 50.1558L316.353 50.2711C315.89 50.2711 315.428 50.3864 314.851 50.5017C314.389 50.617 313.926 50.7323 313.464 50.8476C313.002 50.9629 312.54 51.1935 312.078 51.3088C311.616 51.4241 311.269 51.6547 310.807 51.77C310.461 51.8853 309.998 52.0006 309.767 52.2312C309.421 52.3465 309.19 52.4618 308.959 52.5771C308.496 52.8077 308.15 52.923 308.15 52.923C308.15 52.923 308.265 52.5771 308.496 52.1159C308.612 51.8853 308.728 51.5394 308.959 51.1935C309.19 50.8476 309.421 50.5017 309.767 50.1558C310.114 49.8099 310.345 49.3487 310.807 49.0028C311.269 48.6569 311.731 48.311 312.309 47.9651C312.887 47.7345 313.464 47.3886 314.042 47.158C314.735 46.9274 315.313 46.8121 316.006 46.6968L317.046 46.5815C317.392 46.5815 317.739 46.5815 318.085 46.6968C318.432 46.6968 318.779 46.8121 319.01 46.8121C319.356 46.9274 319.587 46.9274 319.934 47.0427C320.512 47.2733 321.089 47.3886 321.551 47.7345C322.013 47.9651 322.476 48.311 322.938 48.5416C323.284 48.7722 323.631 49.1181 323.977 49.3487C324.209 49.5793 324.44 49.9252 324.671 50.0405C324.555 50.5017 324.786 50.8476 324.786 50.8476Z" fill="#051F38"/>
<path d="M344.311 50.2702C344.311 50.2702 344.08 50.1549 343.618 50.0396C343.156 49.9243 342.578 49.6937 342 49.4631C341.654 49.3478 341.307 49.2325 340.96 49.1172C340.614 49.0019 340.267 48.8866 339.921 48.8866C339.574 48.8866 339.228 48.7713 338.881 48.656C338.765 48.656 338.534 48.656 338.419 48.5407H337.957C337.61 48.4254 337.264 48.656 336.917 48.5407C336.57 48.656 336.224 48.656 335.877 48.7713C335.531 48.8866 335.184 49.0019 334.837 49.1172C334.491 49.2325 334.144 49.3478 333.913 49.4631C333.567 49.5784 333.22 49.6937 332.989 49.809C332.758 49.9243 332.527 50.0396 332.296 50.0396C331.834 50.1549 331.603 50.2702 331.603 50.2702C331.603 50.2702 331.603 50.0396 331.834 49.5784C331.949 49.3478 331.949 49.1172 332.18 48.7713C332.296 48.4254 332.527 48.1948 332.758 47.8489C332.989 47.503 333.22 47.1571 333.567 46.8112C333.913 46.4653 334.375 46.2347 334.722 45.8888C335.184 45.6582 335.762 45.4276 336.224 45.197C336.801 45.0817 337.379 44.9664 337.957 44.9664C338.303 44.9664 338.534 44.9664 338.881 44.9664C339.228 44.9664 339.459 45.0817 339.69 45.197C339.921 45.197 340.267 45.3123 340.498 45.4276C340.729 45.5429 340.96 45.6582 341.192 45.7735C342.116 46.35 342.809 46.9265 343.271 47.6183C343.733 48.3101 343.964 48.8866 344.195 49.3478C344.311 50.0396 344.311 50.2702 344.311 50.2702Z" fill="#051F38"/>
<path d="M330.101 51.5385C330.794 53.0373 331.487 54.6515 332.18 56.1504C332.527 56.9575 332.758 57.6493 333.104 58.4564L334.029 60.7623L334.953 63.0683C335.299 63.8754 335.53 64.5672 335.877 65.3743L336.339 66.5273C336.455 66.8731 336.686 67.3343 336.801 67.6802C337.148 68.372 337.494 69.0638 337.841 69.8709L338.188 70.7933L337.495 71.1392C336.455 71.6004 335.415 72.1769 334.26 72.6381C333.22 73.0993 332.065 73.5605 330.909 73.9064C331.834 73.0993 332.758 72.4075 333.682 71.7157C334.606 71.0239 335.646 70.3321 336.57 69.6403L336.224 70.9086C335.762 70.2168 335.299 69.4097 334.837 68.7179C334.375 68.0261 334.029 67.219 333.682 66.412L333.104 65.259L332.642 64.106C332.411 63.2989 332.065 62.4918 331.834 61.6847L331.14 59.2634C330.909 58.4564 330.794 57.6493 330.563 56.8422C330.447 54.9974 330.216 53.2679 330.101 51.5385Z" fill="#DD9078"/>
<path d="M296.597 74.5982C296.135 74.3676 295.673 74.0217 295.326 73.5605C294.98 73.2146 294.517 72.7534 294.286 72.1769C294.171 71.9463 294.055 71.6004 294.055 71.2545C294.055 71.1392 294.055 70.9086 294.055 70.7933C294.055 70.678 294.171 70.4474 294.171 70.3321C294.286 69.9862 294.517 69.7556 294.748 69.525C294.864 69.4097 294.98 69.2944 295.095 69.1791L295.442 68.9486L295.211 69.2945C295.211 68.0262 295.211 66.7579 295.095 65.6049C294.98 64.3366 294.864 63.0683 294.402 62.0306C294.286 61.8001 294.171 61.5695 293.94 61.4542C293.824 61.3389 293.593 61.2236 293.362 61.2236C293.247 61.2236 293.131 61.2236 293.016 61.3389C292.9 61.3389 292.669 61.4542 292.553 61.4542C292.322 61.5695 292.091 61.6848 291.86 61.9154C291.629 62.1459 291.398 62.2612 291.283 62.4918C291.167 62.7224 290.936 62.953 290.82 63.2989C290.589 63.8754 290.474 64.4519 290.474 65.1437C290.243 64.5672 290.243 63.8754 290.358 63.1836C290.358 62.8377 290.474 62.4918 290.705 62.2612C290.82 61.9153 291.052 61.6848 291.283 61.4542L291.629 61.1083L292.091 60.7624C292.207 60.6471 292.438 60.6471 292.553 60.5318C292.669 60.4165 292.9 60.4165 293.131 60.3012C293.593 60.1859 294.055 60.3012 294.402 60.6471C294.748 60.8777 294.98 61.2236 295.095 61.5695C295.442 62.2612 295.557 62.8377 295.788 63.5295C295.904 64.2213 296.019 64.7978 296.019 65.4896C296.135 66.7579 296.135 68.0262 296.019 69.4098V69.6403L295.788 69.7556C295.557 69.8709 295.326 69.9862 295.211 70.2168C295.095 70.3321 294.864 70.5627 294.748 70.678C294.633 70.7933 294.633 70.9086 294.633 71.0239C294.633 71.1392 294.517 71.2545 294.517 71.3698C294.517 71.6004 294.517 71.831 294.517 72.0616C294.633 72.5228 294.864 72.984 295.211 73.4452C295.904 73.9064 296.25 74.2523 296.597 74.5982Z" fill="#DD9078"/>
<path d="M314.735 61.8C314.735 61.8 314.851 62.0306 314.966 62.4918C315.082 62.7224 315.082 62.953 315.197 63.1835C315.313 63.4141 315.428 63.76 315.659 64.1059C315.775 64.4518 316.121 64.6824 316.237 65.0283C316.353 65.1436 316.468 65.2589 316.699 65.4895C316.815 65.6048 316.93 65.7201 317.161 65.8354C317.508 66.066 317.854 66.1813 318.201 66.2966C318.432 66.2966 318.548 66.4119 318.779 66.4119C319.01 66.4119 319.125 66.4119 319.356 66.2966L319.934 66.066L320.512 65.7201C320.858 65.4895 321.089 65.1436 321.32 64.7977C321.551 64.4518 321.667 64.1059 321.898 63.76C322.013 63.4141 322.129 63.0683 322.129 62.6071C322.129 62.2612 322.129 61.9153 322.245 61.6847C322.245 61.3388 322.245 61.1082 322.245 60.8776C322.245 60.4164 322.245 60.1858 322.245 60.1858C322.245 60.1858 322.36 60.4164 322.476 60.8776C322.591 61.1082 322.591 61.3388 322.707 61.6847C322.707 62.0306 322.822 62.3765 322.822 62.7224C322.822 63.0682 322.822 63.5294 322.707 63.9906C322.591 64.4518 322.476 64.913 322.245 65.3742C322.013 65.8354 321.667 66.2966 321.205 66.6425L320.512 67.1037C320.281 67.219 319.934 67.3343 319.703 67.4496C319.472 67.4496 319.125 67.5649 318.779 67.5649C318.548 67.5649 318.201 67.4496 317.97 67.4496C317.392 67.3343 316.93 66.9884 316.468 66.6425C316.006 66.2966 315.775 65.8354 315.544 65.4895C315.313 65.0283 315.082 64.6824 314.966 64.3365C314.851 63.9906 314.735 63.6447 314.735 63.2988C314.735 62.953 314.735 62.7224 314.735 62.4918C314.735 62.0306 314.735 61.8 314.735 61.8Z" fill="#1F2733"/>
<path d="M335.646 58.3411C335.646 58.3411 335.762 58.5717 335.877 59.0329C335.993 59.2635 335.993 59.4941 336.108 59.7247C336.224 59.9553 336.339 60.3012 336.57 60.6471C336.686 60.993 337.032 61.2236 337.148 61.5695C337.263 61.6848 337.379 61.8001 337.61 62.0307C337.726 62.146 337.841 62.2613 338.072 62.3766C338.419 62.6072 338.765 62.7224 339.112 62.8377C339.343 62.8377 339.458 62.953 339.69 62.953C339.921 62.953 340.036 62.953 340.267 62.8377L340.845 62.6071L341.422 62.2612C341.769 62.0307 342 61.6848 342.231 61.3389C342.462 60.993 342.578 60.6471 342.809 60.3012C342.924 59.9553 343.04 59.6094 343.04 59.1482C343.04 58.8023 343.04 58.4564 343.155 58.2258C343.155 57.8799 343.155 57.6493 343.155 57.4187C343.155 56.9575 343.155 56.7269 343.155 56.7269C343.155 56.7269 343.271 56.9575 343.386 57.4187C343.502 57.6493 343.502 57.8799 343.618 58.2258C343.618 58.5717 343.733 58.9176 343.733 59.2635C343.733 59.6094 343.733 60.0706 343.618 60.5318C343.502 60.993 343.386 61.4542 343.155 61.9154C342.924 62.3766 342.578 62.8377 342.116 63.1836L341.422 63.6448C341.191 63.7601 340.845 63.8754 340.614 63.9907C340.383 63.9907 340.036 64.106 339.69 64.106C339.458 64.106 339.112 63.9907 338.881 63.9907C338.303 63.8754 337.841 63.5295 337.379 63.1836C336.917 62.8377 336.686 62.3766 336.455 62.0307C336.224 61.5695 335.993 61.2236 335.877 60.8777C335.762 60.5318 335.646 60.1859 335.646 59.84C335.646 59.4941 335.646 59.2635 335.646 59.0329C335.646 58.5717 335.646 58.3411 335.646 58.3411Z" fill="#1F2733"/>
<path d="M316.555 78.1034C316.555 78.1034 316.439 78.1034 316.555 78.2187C316.671 78.334 316.902 78.4493 317.133 78.5646C317.595 78.9105 318.403 79.2564 319.328 79.7176C320.252 80.1788 321.407 80.64 322.563 80.9859C323.14 81.2165 323.833 81.3318 324.411 81.4471C324.989 81.5624 325.682 81.6777 326.375 81.793C327.646 81.9083 328.917 82.0236 330.188 81.9083C331.458 81.793 332.498 81.5624 333.538 81.2165C334.462 80.8706 335.271 80.64 335.848 80.4094C336.426 80.1788 336.773 80.0635 336.773 80.0635C336.773 80.0635 336.542 80.4094 336.08 80.7553C335.617 81.2165 334.924 81.793 334 82.3695C333.076 82.946 331.805 83.5225 330.419 83.7531C329.032 84.099 327.53 84.099 326.028 83.9837C325.335 83.8684 324.527 83.7531 323.833 83.5225C323.14 83.2919 322.447 83.0613 321.869 82.7154C320.599 82.1389 319.559 81.4471 318.75 80.7553C317.941 80.0635 317.248 79.3717 316.902 78.7952C316.671 78.5646 316.555 78.334 316.555 78.1034C316.439 78.2187 316.439 78.1034 316.555 78.1034Z" fill="#DD9078"/>
<path d="M334.606 105.613C334.606 105.613 364.182 102.5 367.995 125.099C371.807 147.813 371.46 153.923 371.46 153.923L342.578 149.657L334.606 105.613Z" fill="#8257E6"/>
<path d="M359.56 123.83C357.827 109.417 343.155 106.304 334.605 105.612C330.793 110.916 325.479 114.721 318.2 114.952C309.882 115.182 302.257 112.3 298.214 105.958C285.274 107.457 272.45 111.147 269.562 119.909C263.439 138.357 268.753 239.82 268.753 239.82C268.753 239.82 320.511 248.698 363.026 240.627C362.91 240.742 361.87 143.084 359.56 123.83Z" fill="#8257E6"/>
<path opacity="0.2" d="M266.559 169.258C266.79 202.695 268.754 239.936 268.754 239.936C268.754 239.936 320.512 248.814 363.027 240.743C363.027 240.743 362.218 166.606 360.485 134.784C329.176 146.429 297.868 157.959 266.559 169.258Z" fill="#352C38"/>
<path d="M298.445 196.008C298.445 196.008 297.29 192.664 302.604 190.473C307.918 188.283 362.679 173.986 366.145 174.447C369.611 174.908 412.011 179.981 412.704 182.287C413.397 184.593 361.986 201.196 361.986 201.196L298.445 196.008Z" fill="#E1EDFF"/>
<path d="M364.875 205.577C364.875 205.577 304.915 205.347 300.294 199.928C295.673 194.509 295.557 190.588 321.783 195.2C348.008 199.812 363.142 199.121 363.142 199.121C363.142 199.121 411.203 176.753 412.82 182.172C414.322 187.706 419.405 186.322 364.875 205.577Z" fill="#C0D5FF"/>
<path d="M412.705 182.287C411.203 176.868 363.027 199.236 363.027 199.236C363.027 199.236 362.911 199.236 362.565 199.236C363.604 201.311 364.413 203.271 365.337 205.462C419.405 186.322 414.322 187.706 412.705 182.287Z" fill="#B1C5E8"/>
<path d="M296.712 183.67C296.712 183.67 295.557 180.327 300.871 178.136C306.185 175.945 360.946 161.648 364.412 162.11C367.878 162.571 410.278 167.644 410.971 169.95C411.664 172.256 360.253 188.859 360.253 188.859L296.712 183.67Z" fill="#E1EDFF"/>
<path d="M363.142 193.356C363.142 193.356 303.182 193.125 298.561 187.706C293.94 182.287 293.824 178.367 320.049 182.979C346.275 187.591 361.409 186.899 361.409 186.899C361.409 186.899 409.47 164.531 411.087 169.95C412.473 175.369 417.672 173.985 363.142 193.356Z" fill="#C0D5FF"/>
<path d="M410.972 170.065C409.47 164.646 361.294 187.014 361.294 187.014C361.294 187.014 361.178 187.014 360.832 187.014C361.872 189.09 362.68 191.05 363.604 193.24C417.557 173.986 412.474 175.369 410.972 170.065Z" fill="#B1C5E8"/>
<path d="M296.481 173.64C296.481 173.64 295.441 170.757 300.525 168.797C305.608 166.837 358.636 154.269 361.987 154.731C365.337 155.192 406.35 159.688 407.043 161.649C407.736 163.609 357.943 178.367 357.943 178.367L296.481 173.64Z" fill="#E1EDFF"/>
<path d="M360.716 182.172C360.716 182.172 302.72 181.941 298.215 177.214C293.709 172.487 293.709 169.028 319.01 173.063C344.311 177.099 358.983 176.522 358.983 176.522C358.983 176.522 405.542 156.806 407.044 161.649C408.546 166.376 413.513 165.108 360.716 182.172Z" fill="#C0D5FF"/>
<path d="M407.044 161.649C405.542 156.921 358.983 176.522 358.983 176.522C358.983 176.522 358.868 176.522 358.521 176.522C359.445 178.252 360.37 180.096 361.178 181.941C413.513 165.108 408.546 166.376 407.044 161.649Z" fill="#B1C5E8"/>
<path d="M298.098 160.15C298.098 160.15 297.174 157.267 302.373 155.422C307.572 153.693 360.947 143.085 364.297 143.662C367.647 144.123 408.429 150.234 409.007 152.194C409.585 154.154 359.329 166.952 359.329 166.952L298.098 160.15Z" fill="white"/>
<path d="M361.987 171.102C361.987 171.102 303.991 168.681 299.716 163.838C295.442 158.88 295.442 155.537 320.627 160.495C345.813 165.452 360.485 165.452 360.485 165.452C360.485 165.452 407.737 147.581 409.008 152.308C410.394 157.036 415.362 155.998 361.987 171.102Z" fill="#C0D5FF"/>
<path d="M409.008 152.309C407.737 147.467 360.485 165.453 360.485 165.453C360.485 165.453 360.37 165.453 360.023 165.453C360.947 167.298 361.756 169.143 362.449 170.988C415.246 155.999 410.278 157.037 409.008 152.309Z" fill="#B1C5E8"/>
<path d="M267.946 162.34L296.482 155.422C296.482 155.422 302.605 196.93 304.222 199.236C305.84 201.542 353.553 203.848 353.553 203.848L367.417 204.655C367.417 204.655 308.843 229.213 291.976 219.298C274.878 209.151 267.946 162.34 267.946 162.34Z" fill="#FFB39F"/>
<path d="M270.719 167.298C279.499 164.646 288.048 161.418 297.059 159.458C296.713 156.921 296.482 155.422 296.482 155.422L267.946 162.34C267.946 162.34 268.292 164.416 268.87 167.875C269.563 167.644 270.141 167.413 270.719 167.298Z" fill="#E09B8D"/>
<path d="M362.103 208.46C362.103 208.46 383.822 202.695 383.822 198.313C383.822 193.932 375.966 178.136 381.512 199.236C381.512 199.236 369.959 170.642 379.201 200.619C379.201 200.619 370.19 177.329 376.313 201.196C376.313 201.196 367.07 185.054 373.771 202.349L365.453 205.462L345.466 205.231L334.838 215.608L362.103 208.46Z" fill="#FFB39F"/>
<path d="M412.936 187.36C412.936 187.36 401.383 158.766 410.625 188.744C410.625 188.744 401.614 165.453 407.737 189.32C407.737 189.32 398.495 173.178 404.387 190.588L398.032 193.586C400.343 193.817 403.347 193.701 405.773 192.894C413.167 191.395 415.246 188.859 415.246 186.553C415.246 182.172 407.39 166.376 412.936 187.36Z" fill="#FFB39F"/>
<path d="M442.396 490.825C442.396 494.976 439.045 498.435 434.886 498.55C430.727 498.55 427.261 495.207 427.146 491.056L426.799 466.613C426.799 462.462 430.149 459.003 434.309 458.888C438.468 458.888 441.933 462.231 442.049 466.382L442.396 490.825Z" fill="#091E1D"/>
<path d="M335.993 492.095C335.993 496.245 332.642 499.704 328.483 499.82C324.324 499.82 320.858 496.476 320.743 492.325L320.396 467.882C320.396 463.731 323.747 460.272 327.906 460.157C332.065 460.157 335.531 463.501 335.646 467.651L335.993 492.095Z" fill="#091E1D"/>
<path d="M433.846 473.415C433.962 482.87 426.337 490.595 416.864 490.71L345.697 491.517C336.224 491.633 328.483 484.023 328.368 474.568L320.743 312.92C320.627 303.465 328.252 295.74 337.726 295.625L420.329 294.587C429.803 294.472 437.543 302.082 437.659 311.536L433.846 473.415Z" fill="#322153"/>
<path d="M437.197 327.793L437.543 311.767C437.428 302.312 429.687 294.703 420.214 294.818L337.61 295.856C328.137 295.971 320.512 303.696 320.627 313.151L321.436 329.177L437.197 327.793Z" fill="#1C0C3B"/>
<path d="M451.292 307.732C451.292 310.383 449.212 312.459 446.555 312.574L311.616 314.188C308.959 314.188 306.879 312.113 306.764 309.461L306.533 292.397C306.533 289.745 308.612 287.67 311.269 287.554L446.208 285.94C448.865 285.94 450.945 288.016 451.06 290.667L451.292 307.732Z" fill="#322153"/>
<path d="M379.663 355.119L395.375 345.665L391.562 355.465L379.663 355.119Z" fill="white"/>
<path d="M373.771 340.246C373.771 340.246 375.042 340.246 377.006 343.243C378.97 346.241 383.36 354.312 383.36 354.312L391.332 350.738L393.18 347.625C393.18 347.625 389.714 340.707 386.941 340.246H373.771Z" fill="white"/>
<path d="M369.381 342.321C369.381 342.321 371.807 339.669 373.771 341.053C375.735 342.437 379.201 348.201 379.201 348.201L373.54 358.117L363.373 352.468L369.381 342.321Z" fill="white"/>
<path d="M386.826 367.456L387.635 385.673L380.818 377.718L386.826 367.456Z" fill="white"/>
<path d="M402.769 369.301C402.769 369.301 402.191 370.454 398.61 370.8C395.029 371.146 385.786 371.146 385.786 371.146L385.093 379.908L386.941 383.021C386.941 383.021 394.682 383.367 396.415 381.061L402.769 369.301Z" fill="white"/>
<path d="M402.885 364.458C402.885 364.458 404.155 367.802 401.96 368.955C399.881 369.993 393.064 370.223 393.064 370.223L386.941 360.538L396.761 354.197L402.885 364.458Z" fill="white"/>
<path d="M373.077 367.225L356.903 358.693L367.185 356.849L373.077 367.225Z" fill="white"/>
<path d="M363.373 380.024C363.373 380.024 362.68 378.986 364.182 375.758C365.684 372.529 370.305 364.574 370.305 364.574L363.142 359.616L359.561 359.731C359.561 359.731 355.402 366.303 356.442 368.84L363.373 380.024Z" fill="white"/>
<path d="M367.532 382.56C367.532 382.56 363.951 381.868 364.182 379.562C364.298 377.141 367.532 371.261 367.532 371.261L378.97 370.915L379.432 382.56H367.532Z" fill="white"/>
</g>
<defs>
<linearGradient id="paint0_linear_31413_618" x1="368.817" y1="153.5" x2="867.317" y2="652" gradientUnits="userSpaceOnUse">
<stop stop-color="white"/>
<stop offset="1" stop-color="white" stop-opacity="0"/>
</linearGradient>
<clipPath id="clip0_31413_618">
<rect width="878" height="660" fill="white"/>
</clipPath>
</defs>
</svg>
